name rise43.5482peak65.4966fall89.1036.mot
datacolumns 19
datarows 20
range 9.22662300000000 9.25829200000000
endheader
time	ground_force1_vx	ground_force1_vy	ground_force1_vz	ground_force1_px	ground_force1_py	ground_force1_pz	ground_force2_vx	ground_force2_vy	ground_force2_vz	ground_force2_px	ground_force2_py	ground_force2_pz	ground_torque1_x	ground_torque1_y	ground_torque1_z	ground_torque2_x	ground_torque2_y	ground_torque2_z	
9.22662300000000	-34.18475700000000	790.95903599999997	57.55369900000000	0.09156600000000	0.00000000000000	0.10304300000000	-16.19203900000000	60.35492100000000	6.53154600000000	0.33409000000000	0.00000000000000	-0.08892500000000	0.00000000000000	17.35203000000000	0.00000000000000	0.00000000000000	1.64207000000000	0.00000000000000	
9.22829700000000	-34.61360100000000	788.18749700000001	57.29433400000000	0.09087300000000	0.00000000000000	0.10292100000000	-16.77727700000000	65.63544700000000	6.82451700000000	0.33643300000000	0.00000000000000	-0.08921500000000	0.00000000000000	17.24966800000000	0.00000000000000	0.00000000000000	1.76919100000000	0.00000000000000	
9.22995800000000	-35.05884700000000	785.32650699999999	57.01250000000000	0.09018300000000	0.00000000000000	0.10279600000000	-17.14828900000000	70.67149499999999	7.03847000000000	0.33857000000000	0.00000000000000	-0.08950000000000	0.00000000000000	17.14914800000000	0.00000000000000	0.00000000000000	1.88187500000000	0.00000000000000	
9.23163000000000	-35.52076000000000	782.37650599999995	56.70842500000000	0.08949500000000	0.00000000000000	0.10266600000000	-17.31697300000000	75.47595500000000	7.17674100000000	0.34052100000000	0.00000000000000	-0.08978200000000	0.00000000000000	17.05060800000000	0.00000000000000	0.00000000000000	1.97975200000000	0.00000000000000	
9.23329500000000	-35.99955100000000	779.33786399999997	56.38237600000000	0.08880900000000	0.00000000000000	0.10253300000000	-17.30198000000000	80.07962200000000	7.24524900000000	0.34230200000000	0.00000000000000	-0.09006000000000	0.00000000000000	16.95418100000000	0.00000000000000	0.00000000000000	2.06310100000000	0.00000000000000	
9.23495700000000	-36.49537500000000	776.21088399999996	56.03465900000000	0.08812400000000	0.00000000000000	0.10239700000000	-17.12643300000000	84.52626200000000	7.25165700000000	0.34393100000000	0.00000000000000	-0.09033500000000	0.00000000000000	16.85998600000000	0.00000000000000	0.00000000000000	2.13269100000000	0.00000000000000	
9.23663000000000	-37.00833100000000	772.99578799999995	55.66562100000000	0.08744100000000	0.00000000000000	0.10225600000000	-16.81565800000000	88.86746200000000	7.20454200000000	0.34542100000000	0.00000000000000	-0.09060600000000	0.00000000000000	16.76813400000000	0.00000000000000	0.00000000000000	2.18961300000000	0.00000000000000	
9.23829300000000	-37.53845600000000	769.69271900000001	55.27564600000000	0.08675700000000	0.00000000000000	0.10211300000000	-16.39513600000000	93.15772000000000	7.11263000000000	0.34678500000000	0.00000000000000	-0.09087500000000	0.00000000000000	16.67872600000000	0.00000000000000	0.00000000000000	2.23511400000000	0.00000000000000	
9.23995800000000	-38.08572200000000	766.30173400000001	54.86515300000000	0.08607400000000	0.00000000000000	0.10196600000000	-15.88877600000000	97.45013500000000	6.98415500000000	0.34803200000000	0.00000000000000	-0.09114000000000	0.00000000000000	16.59185200000000	0.00000000000000	0.00000000000000	2.27044900000000	0.00000000000000	
9.24163100000000	-38.65003500000000	762.82280500000002	54.43459600000000	0.08539000000000	0.00000000000000	0.10181500000000	-15.31761400000000	101.79291900000000	6.82635300000000	0.34917400000000	0.00000000000000	-0.09140200000000	0.00000000000000	16.50758700000000	0.00000000000000	0.00000000000000	2.29675900000000	0.00000000000000	
9.24329000000000	-39.23123500000000	759.25581199999999	53.98446300000000	0.08470500000000	0.00000000000000	0.10166200000000	-14.69894200000000	106.22686100000000	6.64513400000000	0.35021800000000	0.00000000000000	-0.09166100000000	0.00000000000000	16.42599900000000	0.00000000000000	0.00000000000000	2.31498400000000	0.00000000000000	
9.24496300000000	-39.82908800000000	755.60054700000001	53.51527300000000	0.08401900000000	0.00000000000000	0.10150500000000	-14.04587200000000	110.78377100000000	6.44490400000000	0.35117300000000	0.00000000000000	-0.09191600000000	0.00000000000000	16.34714000000000	0.00000000000000	0.00000000000000	2.32580400000000	0.00000000000000	
9.24662600000000	-40.44328800000000	751.85670600000003	53.02757400000000	0.08333100000000	0.00000000000000	0.10134500000000	-13.36728700000000	115.48584600000000	6.22852500000000	0.35204500000000	0.00000000000000	-0.09216800000000	0.00000000000000	16.27105000000000	0.00000000000000	0.00000000000000	2.32961800000000	0.00000000000000	
9.24829000000000	-41.07345300000000	748.02389600000004	52.52194200000000	0.08264000000000	0.00000000000000	0.10118300000000	-12.66811100000000	120.34583200000000	5.99741100000000	0.35284100000000	0.00000000000000	-0.09241700000000	0.00000000000000	16.19775700000000	0.00000000000000	0.00000000000000	2.32654500000000	0.00000000000000	
9.24995800000000	-41.71912500000000	744.10163299999999	51.99898100000000	0.08194800000000	0.00000000000000	0.10101700000000	-11.94981600000000	125.36783600000000	5.75169900000000	0.35356500000000	0.00000000000000	-0.09266200000000	0.00000000000000	16.12727300000000	0.00000000000000	0.00000000000000	2.31645000000000	0.00000000000000	
9.25162800000000	-42.37976700000000	740.08933999999999	51.45931700000000	0.08125200000000	0.00000000000000	0.10084900000000	-11.21109700000000	130.54859099999999	5.49049900000000	0.35422400000000	0.00000000000000	-0.09290300000000	0.00000000000000	16.05959900000000	0.00000000000000	0.00000000000000	2.29898700000000	0.00000000000000	
9.25329200000000	-43.05476100000000	735.98635500000000	50.90359800000000	0.08055200000000	0.00000000000000	0.10067900000000	-10.44861800000000	135.87901800000000	5.21216000000000	0.35482100000000	0.00000000000000	-0.09314100000000	0.00000000000000	15.99471900000000	0.00000000000000	0.00000000000000	2.27364900000000	0.00000000000000	
9.25497000000000	-43.74341100000000	731.79192699999999	50.33249400000000	0.07984900000000	0.00000000000000	0.10050600000000	-9.65777200000000	141.34588500000001	4.91455600000000	0.35536000000000	0.00000000000000	-0.09337500000000	0.00000000000000	15.93260500000000	0.00000000000000	0.00000000000000	2.23982200000000	0.00000000000000	
9.25662800000000	-44.44493400000000	727.50522500000000	49.74669200000000	0.07914300000000	0.00000000000000	0.10033000000000	-8.83339000000000	146.93345299999999	4.59534700000000	0.35584600000000	0.00000000000000	-0.09360500000000	0.00000000000000	15.87321200000000	0.00000000000000	0.00000000000000	2.19684600000000	0.00000000000000	
9.25829200000000	-45.15847100000000	723.12533900000005	49.14689400000000	0.07843100000000	0.00000000000000	0.10015300000000	-7.97036100000000	152.62496600000000	4.25221800000000	0.35628100000000	0.00000000000000	-0.09383200000000	0.00000000000000	15.81648100000000	0.00000000000000	0.00000000000000	2.14405800000000	0.00000000000000	
